<svg  xmlns="http://www.w3.org/2000/svg" xmlns:xlink="http://www.w3.org/1999/xlink" width="1750" height="100" viewBox="0 0 1774 124"><path transform="translate(0 100)" d="M48.5859,1.91919L41.4141,1.91919L41.4141,-5.25253L48.5859,-5.25253L48.5859,1.91919ZM48.5859,-8.08081L41.4141,-8.08081L41.4141,-15.2525L48.5859,-15.2525L48.5859,-8.08081ZM48.5859,-18.0808L41.4141,-18.0808L41.4141,-25.2525L48.5859,-25.2525L48.5859,-18.0808ZM88.5859,-28.0808L81.4141,-28.0808L81.4141,-35.2525L88.5859,-35.2525L88.5859,-28.0808ZM78.5859,-28.0808L71.4141,-28.0808L71.4141,-35.2525L78.5859,-35.2525L78.5859,-28.0808ZM68.5859,-28.0808L61.4141,-28.0808L61.4141,-35.2525L68.5859,-35.2525L68.5859,-28.0808ZM58.5859,-28.0808L51.4141,-28.0808L51.4141,-35.2525L58.5859,-35.2525L58.5859,-28.0808ZM48.5859,-28.0808L41.4141,-28.0808L41.4141,-35.2525L48.5859,-35.2525L48.5859,-28.0808ZM38.5859,-28.0808L31.4141,-28.0808L31.4141,-35.2525L38.5859,-35.2525L38.5859,-28.0808ZM28.5859,-28.0808L21.4141,-28.0808L21.4141,-35.2525L28.5859,-35.2525L28.5859,-28.0808ZM18.5859,-28.0808L11.4141,-28.0808L11.4141,-35.2525L18.5859,-35.2525L18.5859,-28.0808ZM8.58586,-28.0808L1.41414,-28.0808L1.41414,-35.2525L8.58586,-35.2525L8.58586,-28.0808ZM88.5859,-38.0808L81.4141,-38.0808L81.4141,-45.2525L88.5859,-45.2525L88.5859,-38.0808ZM48.5859,-38.0808L41.4141,-38.0808L41.4141,-45.2525L48.5859,-45.2525L48.5859,-38.0808ZM8.58586,-38.0808L1.41414,-38.0808L1.41414,-45.2525L8.58586,-45.2525L8.58586,-38.0808ZM88.5859,-48.0808L81.4141,-48.0808L81.4141,-55.2525L88.5859,-55.2525L88.5859,-48.0808ZM48.5859,-48.0808L41.4141,-48.0808L41.4141,-55.2525L48.5859,-55.2525L48.5859,-48.0808ZM8.58586,-48.0808L1.41414,-48.0808L1.41414,-55.2525L8.58586,-55.2525L8.58586,-48.0808ZM88.5859,-58.0808L81.4141,-58.0808L81.4141,-65.2525L88.5859,-65.2525L88.5859,-58.0808ZM48.5859,-58.0808L41.4141,-58.0808L41.4141,-65.2525L48.5859,-65.2525L48.5859,-58.0808ZM8.58586,-58.0808L1.41414,-58.0808L1.41414,-65.2525L8.58586,-65.2525L8.58586,-58.0808ZM88.5859,-68.0808L81.4141,-68.0808L81.4141,-75.2525L88.5859,-75.2525L88.5859,-68.0808ZM78.5859,-68.0808L71.4141,-68.0808L71.4141,-75.2525L78.5859,-75.2525L78.5859,-68.0808ZM68.5859,-68.0808L61.4141,-68.0808L61.4141,-75.2525L68.5859,-75.2525L68.5859,-68.0808ZM58.5859,-68.0808L51.4141,-68.0808L51.4141,-75.2525L58.5859,-75.2525L58.5859,-68.0808ZM48.5859,-68.0808L41.4141,-68.0808L41.4141,-75.2525L48.5859,-75.2525L48.5859,-68.0808ZM38.5859,-68.0808L31.4141,-68.0808L31.4141,-75.2525L38.5859,-75.2525L38.5859,-68.0808ZM28.5859,-68.0808L21.4141,-68.0808L21.4141,-75.2525L28.5859,-75.2525L28.5859,-68.0808ZM18.5859,-68.0808L11.4141,-68.0808L11.4141,-75.2525L18.5859,-75.2525L18.5859,-68.0808ZM8.58586,-68.0808L1.41414,-68.0808L1.41414,-75.2525L8.58586,-75.2525L8.58586,-68.0808ZM48.5859,-78.0808L41.4141,-78.0808L41.4141,-85.2525L48.5859,-85.2525L48.5859,-78.0808Z"></path><path transform="translate(100 100)" d="M88.5859,1.91919L81.4141,1.91919L81.4141,-5.25253L88.5859,-5.25253L88.5859,1.91919ZM78.5859,1.91919L71.4141,1.91919L71.4141,-5.25253L78.5859,-5.25253L78.5859,1.91919ZM18.5859,1.91919L11.4141,1.91919L11.4141,-5.25253L18.5859,-5.25253L18.5859,1.91919ZM8.58586,1.91919L1.41414,1.91919L1.41414,-5.25253L8.58586,-5.25253L8.58586,1.91919ZM68.5859,-8.08081L61.4141,-8.08081L61.4141,-15.2525L68.5859,-15.2525L68.5859,-8.08081ZM58.5859,-8.08081L51.4141,-8.08081L51.4141,-15.2525L58.5859,-15.2525L58.5859,-8.08081ZM38.5859,-8.08081L31.4141,-8.08081L31.4141,-15.2525L38.5859,-15.2525L38.5859,-8.08081ZM28.5859,-8.08081L21.4141,-8.08081L21.4141,-15.2525L28.5859,-15.2525L28.5859,-8.08081ZM48.5859,-18.0808L41.4141,-18.0808L41.4141,-25.2525L48.5859,-25.2525L48.5859,-18.0808ZM58.5859,-28.0808L51.4141,-28.0808L51.4141,-35.2525L58.5859,-35.2525L58.5859,-28.0808ZM38.5859,-28.0808L31.4141,-28.0808L31.4141,-35.2525L38.5859,-35.2525L38.5859,-28.0808ZM58.5859,-38.0808L51.4141,-38.0808L51.4141,-45.2525L58.5859,-45.2525L58.5859,-38.0808ZM28.5859,-38.0808L21.4141,-38.0808L21.4141,-45.2525L28.5859,-45.2525L28.5859,-38.0808ZM68.5859,-48.0808L61.4141,-48.0808L61.4141,-55.2525L68.5859,-55.2525L68.5859,-48.0808ZM28.5859,-48.0808L21.4141,-48.0808L21.4141,-55.2525L28.5859,-55.2525L28.5859,-48.0808ZM68.5859,-58.0808L61.4141,-58.0808L61.4141,-65.2525L68.5859,-65.2525L68.5859,-58.0808ZM88.5859,-68.0808L81.4141,-68.0808L81.4141,-75.2525L88.5859,-75.2525L88.5859,-68.0808ZM78.5859,-68.0808L71.4141,-68.0808L71.4141,-75.2525L78.5859,-75.2525L78.5859,-68.0808ZM68.5859,-68.0808L61.4141,-68.0808L61.4141,-75.2525L68.5859,-75.2525L68.5859,-68.0808ZM58.5859,-68.0808L51.4141,-68.0808L51.4141,-75.2525L58.5859,-75.2525L58.5859,-68.0808ZM48.5859,-68.0808L41.4141,-68.0808L41.4141,-75.2525L48.5859,-75.2525L48.5859,-68.0808ZM38.5859,-68.0808L31.4141,-68.0808L31.4141,-75.2525L38.5859,-75.2525L38.5859,-68.0808ZM28.5859,-68.0808L21.4141,-68.0808L21.4141,-75.2525L28.5859,-75.2525L28.5859,-68.0808ZM18.5859,-68.0808L11.4141,-68.0808L11.4141,-75.2525L18.5859,-75.2525L18.5859,-68.0808ZM8.58586,-68.0808L1.41414,-68.0808L1.41414,-75.2525L8.58586,-75.2525L8.58586,-68.0808ZM48.5859,-78.0808L41.4141,-78.0808L41.4141,-85.2525L48.5859,-85.2525L48.5859,-78.0808Z"></path><path transform="translate(200 100)" d="M88.5859,1.91919L81.4141,1.91919L81.4141,-5.25253L88.5859,-5.25253L88.5859,1.91919ZM78.5859,1.91919L71.4141,1.91919L71.4141,-5.25253L78.5859,-5.25253L78.5859,1.91919ZM8.58586,1.91919L1.41414,1.91919L1.41414,-5.25253L8.58586,-5.25253L8.58586,1.91919ZM88.5859,-8.08081L81.4141,-8.08081L81.4141,-15.2525L88.5859,-15.2525L88.5859,-8.08081ZM48.5859,-8.08081L41.4141,-8.08081L41.4141,-15.2525L48.5859,-15.2525L48.5859,-8.08081ZM8.58586,-8.08081L1.41414,-8.08081L1.41414,-15.2525L8.58586,-15.2525L8.58586,-8.08081ZM88.5859,-18.0808L81.4141,-18.0808L81.4141,-25.2525L88.5859,-25.2525L88.5859,-18.0808ZM78.5859,-18.0808L71.4141,-18.0808L71.4141,-25.2525L78.5859,-25.2525L78.5859,-18.0808ZM48.5859,-18.0808L41.4141,-18.0808L41.4141,-25.2525L48.5859,-25.2525L48.5859,-18.0808ZM18.5859,-18.0808L11.4141,-18.0808L11.4141,-25.2525L18.5859,-25.2525L18.5859,-18.0808ZM8.58586,-18.0808L1.41414,-18.0808L1.41414,-25.2525L8.58586,-25.2525L8.58586,-18.0808ZM88.5859,-28.0808L81.4141,-28.0808L81.4141,-35.2525L88.5859,-35.2525L88.5859,-28.0808ZM68.5859,-28.0808L61.4141,-28.0808L61.4141,-35.2525L68.5859,-35.2525L68.5859,-28.0808ZM58.5859,-28.0808L51.4141,-28.0808L51.4141,-35.2525L58.5859,-35.2525L58.5859,-28.0808ZM38.5859,-28.0808L31.4141,-28.0808L31.4141,-35.2525L38.5859,-35.2525L38.5859,-28.0808ZM28.5859,-28.0808L21.4141,-28.0808L21.4141,-35.2525L28.5859,-35.2525L28.5859,-28.0808ZM8.58586,-28.0808L1.41414,-28.0808L1.41414,-35.2525L8.58586,-35.2525L8.58586,-28.0808ZM88.5859,-38.0808L81.4141,-38.0808L81.4141,-45.2525L88.5859,-45.2525L88.5859,-38.0808ZM58.5859,-38.0808L51.4141,-38.0808L51.4141,-45.2525L58.5859,-45.2525L58.5859,-38.0808ZM28.5859,-38.0808L21.4141,-38.0808L21.4141,-45.2525L28.5859,-45.2525L28.5859,-38.0808ZM8.58586,-38.0808L1.41414,-38.0808L1.41414,-45.2525L8.58586,-45.2525L8.58586,-38.0808ZM88.5859,-48.0808L81.4141,-48.0808L81.4141,-55.2525L88.5859,-55.2525L88.5859,-48.0808ZM68.5859,-48.0808L61.4141,-48.0808L61.4141,-55.2525L68.5859,-55.2525L68.5859,-48.0808ZM48.5859,-48.0808L41.4141,-48.0808L41.4141,-55.2525L48.5859,-55.2525L48.5859,-48.0808ZM38.5859,-48.0808L31.4141,-48.0808L31.4141,-55.2525L38.5859,-55.2525L38.5859,-48.0808ZM18.5859,-48.0808L11.4141,-48.0808L11.4141,-55.2525L18.5859,-55.2525L18.5859,-48.0808ZM8.58586,-48.0808L1.41414,-48.0808L1.41414,-55.2525L8.58586,-55.2525L8.58586,-48.0808ZM88.5859,-58.0808L81.4141,-58.0808L81.4141,-65.2525L88.5859,-65.2525L88.5859,-58.0808ZM68.5859,-58.0808L61.4141,-58.0808L61.4141,-65.2525L68.5859,-65.2525L68.5859,-58.0808ZM38.5859,-58.0808L31.4141,-58.0808L31.4141,-65.2525L38.5859,-65.2525L38.5859,-58.0808ZM8.58586,-58.0808L1.41414,-58.0808L1.41414,-65.2525L8.58586,-65.2525L8.58586,-58.0808ZM88.5859,-68.0808L81.4141,-68.0808L81.4141,-75.2525L88.5859,-75.2525L88.5859,-68.0808ZM68.5859,-68.0808L61.4141,-68.0808L61.4141,-75.2525L68.5859,-75.2525L68.5859,-68.0808ZM38.5859,-68.0808L31.4141,-68.0808L31.4141,-75.2525L38.5859,-75.2525L38.5859,-68.0808ZM8.58586,-68.0808L1.41414,-68.0808L1.41414,-75.2525L8.58586,-75.2525L8.58586,-68.0808ZM88.5859,-78.0808L81.4141,-78.0808L81.4141,-85.2525L88.5859,-85.2525L88.5859,-78.0808ZM78.5859,-78.0808L71.4141,-78.0808L71.4141,-85.2525L78.5859,-85.2525L78.5859,-78.0808ZM68.5859,-78.0808L61.4141,-78.0808L61.4141,-85.2525L68.5859,-85.2525L68.5859,-78.0808ZM58.5859,-78.0808L51.4141,-78.0808L51.4141,-85.2525L58.5859,-85.2525L58.5859,-78.0808ZM48.5859,-78.0808L41.4141,-78.0808L41.4141,-85.2525L48.5859,-85.2525L48.5859,-78.0808ZM38.5859,-78.0808L31.4141,-78.0808L31.4141,-85.2525L38.5859,-85.2525L38.5859,-78.0808ZM28.5859,-78.0808L21.4141,-78.0808L21.4141,-85.2525L28.5859,-85.2525L28.5859,-78.0808ZM18.5859,-78.0808L11.4141,-78.0808L11.4141,-85.2525L18.5859,-85.2525L18.5859,-78.0808ZM8.58586,-78.0808L1.41414,-78.0808L1.41414,-85.2525L8.58586,-85.2525L8.58586,-78.0808Z"></path><path transform="translate(300 100)" d="M48.5859,1.91919L41.4141,1.91919L41.4141,-5.25253L48.5859,-5.25253L48.5859,1.91919ZM38.5859,1.91919L31.4141,1.91919L31.4141,-5.25253L38.5859,-5.25253L38.5859,1.91919ZM48.5859,-8.08081L41.4141,-8.08081L41.4141,-15.2525L48.5859,-15.2525L48.5859,-8.08081ZM88.5859,-18.0808L81.4141,-18.0808L81.4141,-25.2525L88.5859,-25.2525L88.5859,-18.0808ZM78.5859,-18.0808L71.4141,-18.0808L71.4141,-25.2525L78.5859,-25.2525L78.5859,-18.0808ZM68.5859,-18.0808L61.4141,-18.0808L61.4141,-25.2525L68.5859,-25.2525L68.5859,-18.0808ZM58.5859,-18.0808L51.4141,-18.0808L51.4141,-25.2525L58.5859,-25.2525L58.5859,-18.0808ZM48.5859,-18.0808L41.4141,-18.0808L41.4141,-25.2525L48.5859,-25.2525L48.5859,-18.0808ZM38.5859,-18.0808L31.4141,-18.0808L31.4141,-25.2525L38.5859,-25.2525L38.5859,-18.0808ZM28.5859,-18.0808L21.4141,-18.0808L21.4141,-25.2525L28.5859,-25.2525L28.5859,-18.0808ZM18.5859,-18.0808L11.4141,-18.0808L11.4141,-25.2525L18.5859,-25.2525L18.5859,-18.0808ZM8.58586,-18.0808L1.41414,-18.0808L1.41414,-25.2525L8.58586,-25.2525L8.58586,-18.0808ZM48.5859,-28.0808L41.4141,-28.0808L41.4141,-35.2525L48.5859,-35.2525L48.5859,-28.0808ZM58.5859,-38.0808L51.4141,-38.0808L51.4141,-45.2525L58.5859,-45.2525L58.5859,-38.0808ZM68.5859,-48.0808L61.4141,-48.0808L61.4141,-55.2525L68.5859,-55.2525L68.5859,-48.0808ZM58.5859,-48.0808L51.4141,-48.0808L51.4141,-55.2525L58.5859,-55.2525L58.5859,-48.0808ZM48.5859,-48.0808L41.4141,-48.0808L41.4141,-55.2525L48.5859,-55.2525L48.5859,-48.0808ZM38.5859,-48.0808L31.4141,-48.0808L31.4141,-55.2525L38.5859,-55.2525L38.5859,-48.0808ZM28.5859,-48.0808L21.4141,-48.0808L21.4141,-55.2525L28.5859,-55.2525L28.5859,-48.0808ZM88.5859,-58.0808L81.4141,-58.0808L81.4141,-65.2525L88.5859,-65.2525L88.5859,-58.0808ZM8.58586,-58.0808L1.41414,-58.0808L1.41414,-65.2525L8.58586,-65.2525L8.58586,-58.0808ZM88.5859,-68.0808L81.4141,-68.0808L81.4141,-75.2525L88.5859,-75.2525L88.5859,-68.0808ZM78.5859,-68.0808L71.4141,-68.0808L71.4141,-75.2525L78.5859,-75.2525L78.5859,-68.0808ZM68.5859,-68.0808L61.4141,-68.0808L61.4141,-75.2525L68.5859,-75.2525L68.5859,-68.0808ZM58.5859,-68.0808L51.4141,-68.0808L51.4141,-75.2525L58.5859,-75.2525L58.5859,-68.0808ZM48.5859,-68.0808L41.4141,-68.0808L41.4141,-75.2525L48.5859,-75.2525L48.5859,-68.0808ZM38.5859,-68.0808L31.4141,-68.0808L31.4141,-75.2525L38.5859,-75.2525L38.5859,-68.0808ZM28.5859,-68.0808L21.4141,-68.0808L21.4141,-75.2525L28.5859,-75.2525L28.5859,-68.0808ZM18.5859,-68.0808L11.4141,-68.0808L11.4141,-75.2525L18.5859,-75.2525L18.5859,-68.0808ZM8.58586,-68.0808L1.41414,-68.0808L1.41414,-75.2525L8.58586,-75.2525L8.58586,-68.0808ZM48.5859,-78.0808L41.4141,-78.0808L41.4141,-85.2525L48.5859,-85.2525L48.5859,-78.0808Z"></path><path transform="translate(400 100)" d="M68.5859,1.91919L61.4141,1.91919L61.4141,-5.25253L68.5859,-5.25253L68.5859,1.91919ZM18.5859,1.91919L11.4141,1.91919L11.4141,-5.25253L18.5859,-5.25253L18.5859,1.91919ZM68.5859,-8.08081L61.4141,-8.08081L61.4141,-15.2525L68.5859,-15.2525L68.5859,-8.08081ZM28.5859,-8.08081L21.4141,-8.08081L21.4141,-15.2525L28.5859,-15.2525L28.5859,-8.08081ZM18.5859,-8.08081L11.4141,-8.08081L11.4141,-15.2525L18.5859,-15.2525L18.5859,-8.08081ZM68.5859,-18.0808L61.4141,-18.0808L61.4141,-25.2525L68.5859,-25.2525L68.5859,-18.0808ZM18.5859,-18.0808L11.4141,-18.0808L11.4141,-25.2525L18.5859,-25.2525L18.5859,-18.0808ZM68.5859,-28.0808L61.4141,-28.0808L61.4141,-35.2525L68.5859,-35.2525L68.5859,-28.0808ZM18.5859,-28.0808L11.4141,-28.0808L11.4141,-35.2525L18.5859,-35.2525L18.5859,-28.0808ZM68.5859,-38.0808L61.4141,-38.0808L61.4141,-45.2525L68.5859,-45.2525L68.5859,-38.0808ZM18.5859,-38.0808L11.4141,-38.0808L11.4141,-45.2525L18.5859,-45.2525L18.5859,-38.0808ZM88.5859,-48.0808L81.4141,-48.0808L81.4141,-55.2525L88.5859,-55.2525L88.5859,-48.0808ZM78.5859,-48.0808L71.4141,-48.0808L71.4141,-55.2525L78.5859,-55.2525L78.5859,-48.0808ZM68.5859,-48.0808L61.4141,-48.0808L61.4141,-55.2525L68.5859,-55.2525L68.5859,-48.0808ZM58.5859,-48.0808L51.4141,-48.0808L51.4141,-55.2525L58.5859,-55.2525L58.5859,-48.0808ZM48.5859,-48.0808L41.4141,-48.0808L41.4141,-55.2525L48.5859,-55.2525L48.5859,-48.0808ZM38.5859,-48.0808L31.4141,-48.0808L31.4141,-55.2525L38.5859,-55.2525L38.5859,-48.0808ZM18.5859,-48.0808L11.4141,-48.0808L11.4141,-55.2525L18.5859,-55.2525L18.5859,-48.0808ZM8.58586,-48.0808L1.41414,-48.0808L1.41414,-55.2525L8.58586,-55.2525L8.58586,-48.0808ZM68.5859,-58.0808L61.4141,-58.0808L61.4141,-65.2525L68.5859,-65.2525L68.5859,-58.0808ZM68.5859,-68.0808L61.4141,-68.0808L61.4141,-75.2525L68.5859,-75.2525L68.5859,-68.0808ZM28.5859,-68.0808L21.4141,-68.0808L21.4141,-75.2525L28.5859,-75.2525L28.5859,-68.0808ZM68.5859,-78.0808L61.4141,-78.0808L61.4141,-85.2525L68.5859,-85.2525L68.5859,-78.0808ZM18.5859,-78.0808L11.4141,-78.0808L11.4141,-85.2525L18.5859,-85.2525L18.5859,-78.0808Z"></path><path transform="translate(500 100)" d="M88.5859,1.91919L81.4141,1.91919L81.4141,-5.25253L88.5859,-5.25253L88.5859,1.91919ZM78.5859,1.91919L71.4141,1.91919L71.4141,-5.25253L78.5859,-5.25253L78.5859,1.91919ZM48.5859,1.91919L41.4141,1.91919L41.4141,-5.25253L48.5859,-5.25253L48.5859,1.91919ZM38.5859,1.91919L31.4141,1.91919L31.4141,-5.25253L38.5859,-5.25253L38.5859,1.91919ZM8.58586,1.91919L1.41414,1.91919L1.41414,-5.25253L8.58586,-5.25253L8.58586,1.91919ZM88.5859,-8.08081L81.4141,-8.08081L81.4141,-15.2525L88.5859,-15.2525L88.5859,-8.08081ZM28.5859,-8.08081L21.4141,-8.08081L21.4141,-15.2525L28.5859,-15.2525L28.5859,-8.08081ZM18.5859,-8.08081L11.4141,-8.08081L11.4141,-15.2525L18.5859,-15.2525L18.5859,-8.08081ZM88.5859,-18.0808L81.4141,-18.0808L81.4141,-25.2525L88.5859,-25.2525L88.5859,-18.0808ZM68.5859,-18.0808L61.4141,-18.0808L61.4141,-25.2525L68.5859,-25.2525L68.5859,-18.0808ZM28.5859,-18.0808L21.4141,-18.0808L21.4141,-25.2525L28.5859,-25.2525L28.5859,-18.0808ZM88.5859,-28.0808L81.4141,-28.0808L81.4141,-35.2525L88.5859,-35.2525L88.5859,-28.0808ZM68.5859,-28.0808L61.4141,-28.0808L61.4141,-35.2525L68.5859,-35.2525L68.5859,-28.0808ZM38.5859,-28.0808L31.4141,-28.0808L31.4141,-35.2525L38.5859,-35.2525L38.5859,-28.0808ZM18.5859,-28.0808L11.4141,-28.0808L11.4141,-35.2525L18.5859,-35.2525L18.5859,-28.0808ZM88.5859,-38.0808L81.4141,-38.0808L81.4141,-45.2525L88.5859,-45.2525L88.5859,-38.0808ZM68.5859,-38.0808L61.4141,-38.0808L61.4141,-45.2525L68.5859,-45.2525L68.5859,-38.0808ZM48.5859,-38.0808L41.4141,-38.0808L41.4141,-45.2525L48.5859,-45.2525L48.5859,-38.0808ZM18.5859,-38.0808L11.4141,-38.0808L11.4141,-45.2525L18.5859,-45.2525L18.5859,-38.0808ZM88.5859,-48.0808L81.4141,-48.0808L81.4141,-55.2525L88.5859,-55.2525L88.5859,-48.0808ZM68.5859,-48.0808L61.4141,-48.0808L61.4141,-55.2525L68.5859,-55.2525L68.5859,-48.0808ZM18.5859,-48.0808L11.4141,-48.0808L11.4141,-55.2525L18.5859,-55.2525L18.5859,-48.0808ZM88.5859,-58.0808L81.4141,-58.0808L81.4141,-65.2525L88.5859,-65.2525L88.5859,-58.0808ZM68.5859,-58.0808L61.4141,-58.0808L61.4141,-65.2525L68.5859,-65.2525L68.5859,-58.0808ZM48.5859,-58.0808L41.4141,-58.0808L41.4141,-65.2525L48.5859,-65.2525L48.5859,-58.0808ZM38.5859,-58.0808L31.4141,-58.0808L31.4141,-65.2525L38.5859,-65.2525L38.5859,-58.0808ZM28.5859,-58.0808L21.4141,-58.0808L21.4141,-65.2525L28.5859,-65.2525L28.5859,-58.0808ZM18.5859,-58.0808L11.4141,-58.0808L11.4141,-65.2525L18.5859,-65.2525L18.5859,-58.0808ZM8.58586,-58.0808L1.41414,-58.0808L1.41414,-65.2525L8.58586,-65.2525L8.58586,-58.0808ZM88.5859,-68.0808L81.4141,-68.0808L81.4141,-75.2525L88.5859,-75.2525L88.5859,-68.0808ZM48.5859,-68.0808L41.4141,-68.0808L41.4141,-75.2525L48.5859,-75.2525L48.5859,-68.0808ZM18.5859,-68.0808L11.4141,-68.0808L11.4141,-75.2525L18.5859,-75.2525L18.5859,-68.0808ZM88.5859,-78.0808L81.4141,-78.0808L81.4141,-85.2525L88.5859,-85.2525L88.5859,-78.0808ZM18.5859,-78.0808L11.4141,-78.0808L11.4141,-85.2525L18.5859,-85.2525L18.5859,-78.0808Z"></path><path transform="translate(600 100)" d=""></path><path transform="translate(690 100)" d="M28.5859,-8.08081L21.4141,-8.08081L21.4141,-15.2525L28.5859,-15.2525L28.5859,-8.08081ZM28.5859,-18.0808L21.4141,-18.0808L21.4141,-25.2525L28.5859,-25.2525L28.5859,-18.0808ZM28.5859,-28.0808L21.4141,-28.0808L21.4141,-35.2525L28.5859,-35.2525L28.5859,-28.0808ZM28.5859,-38.0808L21.4141,-38.0808L21.4141,-45.2525L28.5859,-45.2525L28.5859,-38.0808ZM28.5859,-48.0808L21.4141,-48.0808L21.4141,-55.2525L28.5859,-55.2525L28.5859,-48.0808ZM28.5859,-58.0808L21.4141,-58.0808L21.4141,-65.2525L28.5859,-65.2525L28.5859,-58.0808ZM48.5859,-68.0808L41.4141,-68.0808L41.4141,-75.2525L48.5859,-75.2525L48.5859,-68.0808ZM38.5859,-68.0808L31.4141,-68.0808L31.4141,-75.2525L38.5859,-75.2525L38.5859,-68.0808ZM28.5859,-68.0808L21.4141,-68.0808L21.4141,-75.2525L28.5859,-75.2525L28.5859,-68.0808ZM18.5859,-68.0808L11.4141,-68.0808L11.4141,-75.2525L18.5859,-75.2525L18.5859,-68.0808ZM8.58586,-68.0808L1.41414,-68.0808L1.41414,-75.2525L8.58586,-75.2525L8.58586,-68.0808Z"></path><path transform="translate(750 100)" d="M48.5859,-8.08081L41.4141,-8.08081L41.4141,-15.2525L48.5859,-15.2525L48.5859,-8.08081ZM8.58586,-8.08081L1.41414,-8.08081L1.41414,-15.2525L8.58586,-15.2525L8.58586,-8.08081ZM48.5859,-18.0808L41.4141,-18.0808L41.4141,-25.2525L48.5859,-25.2525L48.5859,-18.0808ZM8.58586,-18.0808L1.41414,-18.0808L1.41414,-25.2525L8.58586,-25.2525L8.58586,-18.0808ZM48.5859,-28.0808L41.4141,-28.0808L41.4141,-35.2525L48.5859,-35.2525L48.5859,-28.0808ZM8.58586,-28.0808L1.41414,-28.0808L1.41414,-35.2525L8.58586,-35.2525L8.58586,-28.0808ZM48.5859,-38.0808L41.4141,-38.0808L41.4141,-45.2525L48.5859,-45.2525L48.5859,-38.0808ZM18.5859,-38.0808L11.4141,-38.0808L11.4141,-45.2525L18.5859,-45.2525L18.5859,-38.0808ZM8.58586,-38.0808L1.41414,-38.0808L1.41414,-45.2525L8.58586,-45.2525L8.58586,-38.0808ZM38.5859,-48.0808L31.4141,-48.0808L31.4141,-55.2525L38.5859,-55.2525L38.5859,-48.0808ZM28.5859,-48.0808L21.4141,-48.0808L21.4141,-55.2525L28.5859,-55.2525L28.5859,-48.0808ZM8.58586,-48.0808L1.41414,-48.0808L1.41414,-55.2525L8.58586,-55.2525L8.58586,-48.0808ZM8.58586,-58.0808L1.41414,-58.0808L1.41414,-65.2525L8.58586,-65.2525L8.58586,-58.0808ZM8.58586,-68.0808L1.41414,-68.0808L1.41414,-75.2525L8.58586,-75.2525L8.58586,-68.0808Z"></path><path transform="translate(810 100)" d="M48.5859,-8.08081L41.4141,-8.08081L41.4141,-15.2525L48.5859,-15.2525L48.5859,-8.08081ZM38.5859,-8.08081L31.4141,-8.08081L31.4141,-15.2525L38.5859,-15.2525L38.5859,-8.08081ZM28.5859,-8.08081L21.4141,-8.08081L21.4141,-15.2525L28.5859,-15.2525L28.5859,-8.08081ZM18.5859,-8.08081L11.4141,-8.08081L11.4141,-15.2525L18.5859,-15.2525L18.5859,-8.08081ZM8.58586,-18.0808L1.41414,-18.0808L1.41414,-25.2525L8.58586,-25.2525L8.58586,-18.0808ZM48.5859,-28.0808L41.4141,-28.0808L41.4141,-35.2525L48.5859,-35.2525L48.5859,-28.0808ZM38.5859,-28.0808L31.4141,-28.0808L31.4141,-35.2525L38.5859,-35.2525L38.5859,-28.0808ZM28.5859,-28.0808L21.4141,-28.0808L21.4141,-35.2525L28.5859,-35.2525L28.5859,-28.0808ZM18.5859,-28.0808L11.4141,-28.0808L11.4141,-35.2525L18.5859,-35.2525L18.5859,-28.0808ZM8.58586,-28.0808L1.41414,-28.0808L1.41414,-35.2525L8.58586,-35.2525L8.58586,-28.0808ZM48.5859,-38.0808L41.4141,-38.0808L41.4141,-45.2525L48.5859,-45.2525L48.5859,-38.0808ZM8.58586,-38.0808L1.41414,-38.0808L1.41414,-45.2525L8.58586,-45.2525L8.58586,-38.0808ZM38.5859,-48.0808L31.4141,-48.0808L31.4141,-55.2525L38.5859,-55.2525L38.5859,-48.0808ZM28.5859,-48.0808L21.4141,-48.0808L21.4141,-55.2525L28.5859,-55.2525L28.5859,-48.0808ZM18.5859,-48.0808L11.4141,-48.0808L11.4141,-55.2525L18.5859,-55.2525L18.5859,-48.0808Z"></path><path transform="translate(870 100)" d=""></path><path transform="translate(910 100)" d="M8.58586,-8.08081L1.41414,-8.08081L1.41414,-15.2525L8.58586,-15.2525L8.58586,-8.08081ZM8.58586,-18.0808L1.41414,-18.0808L1.41414,-25.2525L8.58586,-25.2525L8.58586,-18.0808ZM38.5859,-28.0808L31.4141,-28.0808L31.4141,-35.2525L38.5859,-35.2525L38.5859,-28.0808ZM28.5859,-28.0808L21.4141,-28.0808L21.4141,-35.2525L28.5859,-35.2525L28.5859,-28.0808ZM18.5859,-28.0808L11.4141,-28.0808L11.4141,-35.2525L18.5859,-35.2525L18.5859,-28.0808ZM8.58586,-28.0808L1.41414,-28.0808L1.41414,-35.2525L8.58586,-35.2525L8.58586,-28.0808ZM48.5859,-38.0808L41.4141,-38.0808L41.4141,-45.2525L48.5859,-45.2525L48.5859,-38.0808ZM8.58586,-38.0808L1.41414,-38.0808L1.41414,-45.2525L8.58586,-45.2525L8.58586,-38.0808ZM48.5859,-48.0808L41.4141,-48.0808L41.4141,-55.2525L48.5859,-55.2525L48.5859,-48.0808ZM8.58586,-48.0808L1.41414,-48.0808L1.41414,-55.2525L8.58586,-55.2525L8.58586,-48.0808ZM48.5859,-58.0808L41.4141,-58.0808L41.4141,-65.2525L48.5859,-65.2525L48.5859,-58.0808ZM8.58586,-58.0808L1.41414,-58.0808L1.41414,-65.2525L8.58586,-65.2525L8.58586,-58.0808ZM38.5859,-68.0808L31.4141,-68.0808L31.4141,-75.2525L38.5859,-75.2525L38.5859,-68.0808ZM28.5859,-68.0808L21.4141,-68.0808L21.4141,-75.2525L28.5859,-75.2525L28.5859,-68.0808ZM18.5859,-68.0808L11.4141,-68.0808L11.4141,-75.2525L18.5859,-75.2525L18.5859,-68.0808ZM8.58586,-68.0808L1.41414,-68.0808L1.41414,-75.2525L8.58586,-75.2525L8.58586,-68.0808Z"></path><path transform="translate(970 100)" d="M8.58586,-8.08081L1.41414,-8.08081L1.41414,-15.2525L8.58586,-15.2525L8.58586,-8.08081ZM8.58586,-18.0808L1.41414,-18.0808L1.41414,-25.2525L8.58586,-25.2525L8.58586,-18.0808ZM8.58586,-28.0808L1.41414,-28.0808L1.41414,-35.2525L8.58586,-35.2525L8.58586,-28.0808ZM18.5859,-38.0808L11.4141,-38.0808L11.4141,-45.2525L18.5859,-45.2525L18.5859,-38.0808ZM8.58586,-38.0808L1.41414,-38.0808L1.41414,-45.2525L8.58586,-45.2525L8.58586,-38.0808ZM38.5859,-48.0808L31.4141,-48.0808L31.4141,-55.2525L38.5859,-55.2525L38.5859,-48.0808ZM28.5859,-48.0808L21.4141,-48.0808L21.4141,-55.2525L28.5859,-55.2525L28.5859,-48.0808ZM8.58586,-48.0808L1.41414,-48.0808L1.41414,-55.2525L8.58586,-55.2525L8.58586,-48.0808Z"></path><path transform="translate(1020 100)" d="M38.5859,-8.08081L31.4141,-8.08081L31.4141,-15.2525L38.5859,-15.2525L38.5859,-8.08081ZM28.5859,-8.08081L21.4141,-8.08081L21.4141,-15.2525L28.5859,-15.2525L28.5859,-8.08081ZM18.5859,-8.08081L11.4141,-8.08081L11.4141,-15.2525L18.5859,-15.2525L18.5859,-8.08081ZM48.5859,-18.0808L41.4141,-18.0808L41.4141,-25.2525L48.5859,-25.2525L48.5859,-18.0808ZM8.58586,-18.0808L1.41414,-18.0808L1.41414,-25.2525L8.58586,-25.2525L8.58586,-18.0808ZM48.5859,-28.0808L41.4141,-28.0808L41.4141,-35.2525L48.5859,-35.2525L48.5859,-28.0808ZM8.58586,-28.0808L1.41414,-28.0808L1.41414,-35.2525L8.58586,-35.2525L8.58586,-28.0808ZM48.5859,-38.0808L41.4141,-38.0808L41.4141,-45.2525L48.5859,-45.2525L48.5859,-38.0808ZM8.58586,-38.0808L1.41414,-38.0808L1.41414,-45.2525L8.58586,-45.2525L8.58586,-38.0808ZM38.5859,-48.0808L31.4141,-48.0808L31.4141,-55.2525L38.5859,-55.2525L38.5859,-48.0808ZM28.5859,-48.0808L21.4141,-48.0808L21.4141,-55.2525L28.5859,-55.2525L28.5859,-48.0808ZM18.5859,-48.0808L11.4141,-48.0808L11.4141,-55.2525L18.5859,-55.2525L18.5859,-48.0808Z"></path><path transform="translate(1080 100)" d="M18.5859,11.9192L11.4141,11.9192L11.4141,4.74747L18.5859,4.74747L18.5859,11.9192ZM8.58586,11.9192L1.41414,11.9192L1.41414,4.74747L8.58586,4.74747L8.58586,11.9192ZM28.5859,1.91919L21.4141,1.91919L21.4141,-5.25253L28.5859,-5.25253L28.5859,1.91919ZM28.5859,-8.08081L21.4141,-8.08081L21.4141,-15.2525L28.5859,-15.2525L28.5859,-8.08081ZM28.5859,-18.0808L21.4141,-18.0808L21.4141,-25.2525L28.5859,-25.2525L28.5859,-18.0808ZM28.5859,-28.0808L21.4141,-28.0808L21.4141,-35.2525L28.5859,-35.2525L28.5859,-28.0808ZM28.5859,-38.0808L21.4141,-38.0808L21.4141,-45.2525L28.5859,-45.2525L28.5859,-38.0808ZM28.5859,-48.0808L21.4141,-48.0808L21.4141,-55.2525L28.5859,-55.2525L28.5859,-48.0808ZM28.5859,-78.0808L21.4141,-78.0808L21.4141,-85.2525L28.5859,-85.2525L28.5859,-78.0808Z"></path><path transform="translate(1120 100)" d="M48.5859,-8.08081L41.4141,-8.08081L41.4141,-15.2525L48.5859,-15.2525L48.5859,-8.08081ZM38.5859,-8.08081L31.4141,-8.08081L31.4141,-15.2525L38.5859,-15.2525L38.5859,-8.08081ZM28.5859,-8.08081L21.4141,-8.08081L21.4141,-15.2525L28.5859,-15.2525L28.5859,-8.08081ZM18.5859,-8.08081L11.4141,-8.08081L11.4141,-15.2525L18.5859,-15.2525L18.5859,-8.08081ZM8.58586,-18.0808L1.41414,-18.0808L1.41414,-25.2525L8.58586,-25.2525L8.58586,-18.0808ZM48.5859,-28.0808L41.4141,-28.0808L41.4141,-35.2525L48.5859,-35.2525L48.5859,-28.0808ZM38.5859,-28.0808L31.4141,-28.0808L31.4141,-35.2525L38.5859,-35.2525L38.5859,-28.0808ZM28.5859,-28.0808L21.4141,-28.0808L21.4141,-35.2525L28.5859,-35.2525L28.5859,-28.0808ZM18.5859,-28.0808L11.4141,-28.0808L11.4141,-35.2525L18.5859,-35.2525L18.5859,-28.0808ZM8.58586,-28.0808L1.41414,-28.0808L1.41414,-35.2525L8.58586,-35.2525L8.58586,-28.0808ZM48.5859,-38.0808L41.4141,-38.0808L41.4141,-45.2525L48.5859,-45.2525L48.5859,-38.0808ZM8.58586,-38.0808L1.41414,-38.0808L1.41414,-45.2525L8.58586,-45.2525L8.58586,-38.0808ZM38.5859,-48.0808L31.4141,-48.0808L31.4141,-55.2525L38.5859,-55.2525L38.5859,-48.0808ZM28.5859,-48.0808L21.4141,-48.0808L21.4141,-55.2525L28.5859,-55.2525L28.5859,-48.0808ZM18.5859,-48.0808L11.4141,-48.0808L11.4141,-55.2525L18.5859,-55.2525L18.5859,-48.0808Z"></path><path transform="translate(1180 100)" d="M48.5859,-8.08081L41.4141,-8.08081L41.4141,-15.2525L48.5859,-15.2525L48.5859,-8.08081ZM38.5859,-8.08081L31.4141,-8.08081L31.4141,-15.2525L38.5859,-15.2525L38.5859,-8.08081ZM28.5859,-8.08081L21.4141,-8.08081L21.4141,-15.2525L28.5859,-15.2525L28.5859,-8.08081ZM18.5859,-8.08081L11.4141,-8.08081L11.4141,-15.2525L18.5859,-15.2525L18.5859,-8.08081ZM8.58586,-18.0808L1.41414,-18.0808L1.41414,-25.2525L8.58586,-25.2525L8.58586,-18.0808ZM8.58586,-28.0808L1.41414,-28.0808L1.41414,-35.2525L8.58586,-35.2525L8.58586,-28.0808ZM48.5859,-38.0808L41.4141,-38.0808L41.4141,-45.2525L48.5859,-45.2525L48.5859,-38.0808ZM8.58586,-38.0808L1.41414,-38.0808L1.41414,-45.2525L8.58586,-45.2525L8.58586,-38.0808ZM38.5859,-48.0808L31.4141,-48.0808L31.4141,-55.2525L38.5859,-55.2525L38.5859,-48.0808ZM28.5859,-48.0808L21.4141,-48.0808L21.4141,-55.2525L28.5859,-55.2525L28.5859,-48.0808ZM18.5859,-48.0808L11.4141,-48.0808L11.4141,-55.2525L18.5859,-55.2525L18.5859,-48.0808Z"></path><path transform="translate(1240 100)" d="M48.5859,-8.08081L41.4141,-8.08081L41.4141,-15.2525L48.5859,-15.2525L48.5859,-8.08081ZM38.5859,-8.08081L31.4141,-8.08081L31.4141,-15.2525L38.5859,-15.2525L38.5859,-8.08081ZM28.5859,-18.0808L21.4141,-18.0808L21.4141,-25.2525L28.5859,-25.2525L28.5859,-18.0808ZM28.5859,-28.0808L21.4141,-28.0808L21.4141,-35.2525L28.5859,-35.2525L28.5859,-28.0808ZM28.5859,-38.0808L21.4141,-38.0808L21.4141,-45.2525L28.5859,-45.2525L28.5859,-38.0808ZM48.5859,-48.0808L41.4141,-48.0808L41.4141,-55.2525L48.5859,-55.2525L48.5859,-48.0808ZM38.5859,-48.0808L31.4141,-48.0808L31.4141,-55.2525L38.5859,-55.2525L38.5859,-48.0808ZM28.5859,-48.0808L21.4141,-48.0808L21.4141,-55.2525L28.5859,-55.2525L28.5859,-48.0808ZM18.5859,-48.0808L11.4141,-48.0808L11.4141,-55.2525L18.5859,-55.2525L18.5859,-48.0808ZM8.58586,-48.0808L1.41414,-48.0808L1.41414,-55.2525L8.58586,-55.2525L8.58586,-48.0808ZM28.5859,-58.0808L21.4141,-58.0808L21.4141,-65.2525L28.5859,-65.2525L28.5859,-58.0808ZM28.5859,-68.0808L21.4141,-68.0808L21.4141,-75.2525L28.5859,-75.2525L28.5859,-68.0808Z"></path><path transform="translate(1300 100)" d=""></path><path transform="translate(1340 100)" d="M8.58586,-8.08081L1.41414,-8.08081L1.41414,-15.2525L8.58586,-15.2525L8.58586,-8.08081ZM8.58586,-18.0808L1.41414,-18.0808L1.41414,-25.2525L8.58586,-25.2525L8.58586,-18.0808ZM8.58586,-28.0808L1.41414,-28.0808L1.41414,-35.2525L8.58586,-35.2525L8.58586,-28.0808ZM38.5859,-38.0808L31.4141,-38.0808L31.4141,-45.2525L38.5859,-45.2525L38.5859,-38.0808ZM28.5859,-38.0808L21.4141,-38.0808L21.4141,-45.2525L28.5859,-45.2525L28.5859,-38.0808ZM18.5859,-38.0808L11.4141,-38.0808L11.4141,-45.2525L18.5859,-45.2525L18.5859,-38.0808ZM8.58586,-38.0808L1.41414,-38.0808L1.41414,-45.2525L8.58586,-45.2525L8.58586,-38.0808ZM8.58586,-48.0808L1.41414,-48.0808L1.41414,-55.2525L8.58586,-55.2525L8.58586,-48.0808ZM8.58586,-58.0808L1.41414,-58.0808L1.41414,-65.2525L8.58586,-65.2525L8.58586,-58.0808ZM48.5859,-68.0808L41.4141,-68.0808L41.4141,-75.2525L48.5859,-75.2525L48.5859,-68.0808ZM38.5859,-68.0808L31.4141,-68.0808L31.4141,-75.2525L38.5859,-75.2525L38.5859,-68.0808ZM28.5859,-68.0808L21.4141,-68.0808L21.4141,-75.2525L28.5859,-75.2525L28.5859,-68.0808ZM18.5859,-68.0808L11.4141,-68.0808L11.4141,-75.2525L18.5859,-75.2525L18.5859,-68.0808ZM8.58586,-68.0808L1.41414,-68.0808L1.41414,-75.2525L8.58586,-75.2525L8.58586,-68.0808Z"></path><path transform="translate(1400 100)" d="M38.5859,-8.08081L31.4141,-8.08081L31.4141,-15.2525L38.5859,-15.2525L38.5859,-8.08081ZM28.5859,-8.08081L21.4141,-8.08081L21.4141,-15.2525L28.5859,-15.2525L28.5859,-8.08081ZM18.5859,-8.08081L11.4141,-8.08081L11.4141,-15.2525L18.5859,-15.2525L18.5859,-8.08081ZM48.5859,-18.0808L41.4141,-18.0808L41.4141,-25.2525L48.5859,-25.2525L48.5859,-18.0808ZM8.58586,-18.0808L1.41414,-18.0808L1.41414,-25.2525L8.58586,-25.2525L8.58586,-18.0808ZM48.5859,-28.0808L41.4141,-28.0808L41.4141,-35.2525L48.5859,-35.2525L48.5859,-28.0808ZM8.58586,-28.0808L1.41414,-28.0808L1.41414,-35.2525L8.58586,-35.2525L8.58586,-28.0808ZM48.5859,-38.0808L41.4141,-38.0808L41.4141,-45.2525L48.5859,-45.2525L48.5859,-38.0808ZM8.58586,-38.0808L1.41414,-38.0808L1.41414,-45.2525L8.58586,-45.2525L8.58586,-38.0808ZM38.5859,-48.0808L31.4141,-48.0808L31.4141,-55.2525L38.5859,-55.2525L38.5859,-48.0808ZM28.5859,-48.0808L21.4141,-48.0808L21.4141,-55.2525L28.5859,-55.2525L28.5859,-48.0808ZM18.5859,-48.0808L11.4141,-48.0808L11.4141,-55.2525L18.5859,-55.2525L18.5859,-48.0808Z"></path><path transform="translate(1460 100)" d="M8.58586,-8.08081L1.41414,-8.08081L1.41414,-15.2525L8.58586,-15.2525L8.58586,-8.08081ZM8.58586,-18.0808L1.41414,-18.0808L1.41414,-25.2525L8.58586,-25.2525L8.58586,-18.0808ZM8.58586,-28.0808L1.41414,-28.0808L1.41414,-35.2525L8.58586,-35.2525L8.58586,-28.0808ZM18.5859,-38.0808L11.4141,-38.0808L11.4141,-45.2525L18.5859,-45.2525L18.5859,-38.0808ZM8.58586,-38.0808L1.41414,-38.0808L1.41414,-45.2525L8.58586,-45.2525L8.58586,-38.0808ZM38.5859,-48.0808L31.4141,-48.0808L31.4141,-55.2525L38.5859,-55.2525L38.5859,-48.0808ZM28.5859,-48.0808L21.4141,-48.0808L21.4141,-55.2525L28.5859,-55.2525L28.5859,-48.0808ZM8.58586,-48.0808L1.41414,-48.0808L1.41414,-55.2525L8.58586,-55.2525L8.58586,-48.0808Z"></path><path transform="translate(1510 100)" d=""></path><path transform="translate(1550 100)" d="M58.5859,-8.08081L51.4141,-8.08081L51.4141,-15.2525L58.5859,-15.2525L58.5859,-8.08081ZM48.5859,-8.08081L41.4141,-8.08081L41.4141,-15.2525L48.5859,-15.2525L48.5859,-8.08081ZM38.5859,-8.08081L31.4141,-8.08081L31.4141,-15.2525L38.5859,-15.2525L38.5859,-8.08081ZM28.5859,-8.08081L21.4141,-8.08081L21.4141,-15.2525L28.5859,-15.2525L28.5859,-8.08081ZM18.5859,-8.08081L11.4141,-8.08081L11.4141,-15.2525L18.5859,-15.2525L18.5859,-8.08081ZM8.58586,-8.08081L1.41414,-8.08081L1.41414,-15.2525L8.58586,-15.2525L8.58586,-8.08081ZM68.5859,-18.0808L61.4141,-18.0808L61.4141,-25.2525L68.5859,-25.2525L68.5859,-18.0808ZM38.5859,-18.0808L31.4141,-18.0808L31.4141,-25.2525L38.5859,-25.2525L38.5859,-18.0808ZM8.58586,-18.0808L1.41414,-18.0808L1.41414,-25.2525L8.58586,-25.2525L8.58586,-18.0808ZM68.5859,-28.0808L61.4141,-28.0808L61.4141,-35.2525L68.5859,-35.2525L68.5859,-28.0808ZM38.5859,-28.0808L31.4141,-28.0808L31.4141,-35.2525L38.5859,-35.2525L38.5859,-28.0808ZM8.58586,-28.0808L1.41414,-28.0808L1.41414,-35.2525L8.58586,-35.2525L8.58586,-28.0808ZM68.5859,-38.0808L61.4141,-38.0808L61.4141,-45.2525L68.5859,-45.2525L68.5859,-38.0808ZM38.5859,-38.0808L31.4141,-38.0808L31.4141,-45.2525L38.5859,-45.2525L38.5859,-38.0808ZM8.58586,-38.0808L1.41414,-38.0808L1.41414,-45.2525L8.58586,-45.2525L8.58586,-38.0808ZM68.5859,-48.0808L61.4141,-48.0808L61.4141,-55.2525L68.5859,-55.2525L68.5859,-48.0808ZM38.5859,-48.0808L31.4141,-48.0808L31.4141,-55.2525L38.5859,-55.2525L38.5859,-48.0808ZM8.58586,-48.0808L1.41414,-48.0808L1.41414,-55.2525L8.58586,-55.2525L8.58586,-48.0808ZM68.5859,-58.0808L61.4141,-58.0808L61.4141,-65.2525L68.5859,-65.2525L68.5859,-58.0808ZM38.5859,-58.0808L31.4141,-58.0808L31.4141,-65.2525L38.5859,-65.2525L38.5859,-58.0808ZM8.58586,-58.0808L1.41414,-58.0808L1.41414,-65.2525L8.58586,-65.2525L8.58586,-58.0808ZM68.5859,-68.0808L61.4141,-68.0808L61.4141,-75.2525L68.5859,-75.2525L68.5859,-68.0808ZM38.5859,-68.0808L31.4141,-68.0808L31.4141,-75.2525L38.5859,-75.2525L38.5859,-68.0808ZM8.58586,-68.0808L1.41414,-68.0808L1.41414,-75.2525L8.58586,-75.2525L8.58586,-68.0808Z"></path><path transform="translate(1630 100)" d="M48.5859,-8.08081L41.4141,-8.08081L41.4141,-15.2525L48.5859,-15.2525L48.5859,-8.08081ZM38.5859,-8.08081L31.4141,-8.08081L31.4141,-15.2525L38.5859,-15.2525L38.5859,-8.08081ZM28.5859,-8.08081L21.4141,-8.08081L21.4141,-15.2525L28.5859,-15.2525L28.5859,-8.08081ZM18.5859,-8.08081L11.4141,-8.08081L11.4141,-15.2525L18.5859,-15.2525L18.5859,-8.08081ZM8.58586,-18.0808L1.41414,-18.0808L1.41414,-25.2525L8.58586,-25.2525L8.58586,-18.0808ZM48.5859,-28.0808L41.4141,-28.0808L41.4141,-35.2525L48.5859,-35.2525L48.5859,-28.0808ZM38.5859,-28.0808L31.4141,-28.0808L31.4141,-35.2525L38.5859,-35.2525L38.5859,-28.0808ZM28.5859,-28.0808L21.4141,-28.0808L21.4141,-35.2525L28.5859,-35.2525L28.5859,-28.0808ZM18.5859,-28.0808L11.4141,-28.0808L11.4141,-35.2525L18.5859,-35.2525L18.5859,-28.0808ZM8.58586,-28.0808L1.41414,-28.0808L1.41414,-35.2525L8.58586,-35.2525L8.58586,-28.0808ZM48.5859,-38.0808L41.4141,-38.0808L41.4141,-45.2525L48.5859,-45.2525L48.5859,-38.0808ZM8.58586,-38.0808L1.41414,-38.0808L1.41414,-45.2525L8.58586,-45.2525L8.58586,-38.0808ZM38.5859,-48.0808L31.4141,-48.0808L31.4141,-55.2525L38.5859,-55.2525L38.5859,-48.0808ZM28.5859,-48.0808L21.4141,-48.0808L21.4141,-55.2525L28.5859,-55.2525L28.5859,-48.0808ZM18.5859,-48.0808L11.4141,-48.0808L11.4141,-55.2525L18.5859,-55.2525L18.5859,-48.0808Z"></path><path transform="translate(1690 100)" d="M38.5859,-8.08081L31.4141,-8.08081L31.4141,-15.2525L38.5859,-15.2525L38.5859,-8.08081ZM28.5859,-8.08081L21.4141,-8.08081L21.4141,-15.2525L28.5859,-15.2525L28.5859,-8.08081ZM18.5859,-8.08081L11.4141,-8.08081L11.4141,-15.2525L18.5859,-15.2525L18.5859,-8.08081ZM8.58586,-8.08081L1.41414,-8.08081L1.41414,-15.2525L8.58586,-15.2525L8.58586,-8.08081ZM48.5859,-18.0808L41.4141,-18.0808L41.4141,-25.2525L48.5859,-25.2525L48.5859,-18.0808ZM8.58586,-18.0808L1.41414,-18.0808L1.41414,-25.2525L8.58586,-25.2525L8.58586,-18.0808ZM48.5859,-28.0808L41.4141,-28.0808L41.4141,-35.2525L48.5859,-35.2525L48.5859,-28.0808ZM8.58586,-28.0808L1.41414,-28.0808L1.41414,-35.2525L8.58586,-35.2525L8.58586,-28.0808ZM48.5859,-38.0808L41.4141,-38.0808L41.4141,-45.2525L48.5859,-45.2525L48.5859,-38.0808ZM8.58586,-38.0808L1.41414,-38.0808L1.41414,-45.2525L8.58586,-45.2525L8.58586,-38.0808ZM38.5859,-48.0808L31.4141,-48.0808L31.4141,-55.2525L38.5859,-55.2525L38.5859,-48.0808ZM28.5859,-48.0808L21.4141,-48.0808L21.4141,-55.2525L28.5859,-55.2525L28.5859,-48.0808ZM18.5859,-48.0808L11.4141,-48.0808L11.4141,-55.2525L18.5859,-55.2525L18.5859,-48.0808ZM8.58586,-48.0808L1.41414,-48.0808L1.41414,-55.2525L8.58586,-55.2525L8.58586,-48.0808ZM8.58586,-58.0808L1.41414,-58.0808L1.41414,-65.2525L8.58586,-65.2525L8.58586,-58.0808ZM8.58586,-68.0808L1.41414,-68.0808L1.41414,-75.2525L8.58586,-75.2525L8.58586,-68.0808Z"></path></svg>